<svg xmlns="http://www.w3.org/2000/svg" xmlns:xlink="http://www.w3.org/1999/xlink" width="77" zoomAndPan="magnify" viewBox="0 0 57.75 30.000001" height="40" preserveAspectRatio="xMidYMid meet" version="1.0"><defs><g/><clipPath id="d357bc40ef"><path d="M 3.726562 7.183594 L 29.96875 7.183594 L 29.96875 20.304688 L 3.726562 20.304688 Z M 3.726562 7.183594 " clip-rule="nonzero"/></clipPath></defs><g clip-path="url(#d357bc40ef)"><path fill="#d2c2b0" d="M 3.726562 0.667969 L 29.96875 0.667969 L 29.96875 26.910156 L 3.726562 26.910156 Z M 3.726562 0.667969 " fill-opacity="1" fill-rule="nonzero"/></g><g fill="#ffffff" fill-opacity="1"><g transform="translate(4.98047, 18.835739)"><g><path d="M 5.308594 -9.96875 C 3.214844 -9.96875 1.289062 -8.75 1.289062 -6.597656 C 1.289062 -5.152344 2.363281 -4.488281 4.148438 -4.035156 C 5.265625 -3.738281 5.71875 -3.285156 5.71875 -2.734375 C 5.71875 -1.941406 4.984375 -1.445312 4.078125 -1.445312 C 3.1875 -1.445312 2.476562 -1.925781 2.464844 -2.929688 L 0.226562 -2.929688 C 0.0273438 -0.820312 1.542969 0.199219 3.824219 0.199219 C 6.089844 0.199219 8.113281 -0.976562 8.113281 -3.15625 C 8.113281 -4.460938 7.304688 -5.351562 5.523438 -5.789062 C 4.164062 -6.117188 3.679688 -6.5 3.679688 -7.09375 C 3.679688 -7.902344 4.277344 -8.324219 5.070312 -8.324219 C 6.003906 -8.324219 6.429688 -7.746094 6.371094 -6.839844 L 8.609375 -6.839844 C 8.707031 -8.609375 7.746094 -9.96875 5.308594 -9.96875 Z M 5.308594 -9.96875 "/></g></g></g><g fill="#ffffff" fill-opacity="1"><g transform="translate(12.937177, 18.835739)"><g><path d="M 3.808594 -6.074219 L 5.351562 -6.074219 L 5.605469 -7.488281 L 4.050781 -7.488281 L 4.390625 -9.386719 L 2.167969 -9.386719 L 1.828125 -7.488281 L 0.734375 -7.488281 L 0.480469 -6.074219 L 1.570312 -6.074219 L 0.960938 -2.605469 C 0.847656 -1.910156 0.808594 -1.5 0.808594 -1.1875 C 0.808594 -0.269531 1.34375 0.183594 2.71875 0.183594 C 3.269531 0.183594 3.765625 0.128906 4.277344 0.015625 L 4.53125 -1.414062 C 3.566406 -1.289062 3.144531 -1.429688 3.144531 -2.054688 C 3.144531 -2.292969 3.15625 -2.492188 3.242188 -2.902344 Z M 3.808594 -6.074219 "/></g></g></g><g fill="#ffffff" fill-opacity="1"><g transform="translate(17.495966, 18.835739)"><g><path d="M 2.5625 -3.199219 L 7.84375 -3.199219 C 8 -3.667969 8.097656 -4.234375 8.097656 -4.699219 C 8.097656 -6.371094 7.035156 -7.746094 4.800781 -7.746094 C 2.09375 -7.746094 0.3125 -5.648438 0.3125 -2.902344 C 0.3125 -0.707031 1.8125 0.199219 3.667969 0.199219 C 5.59375 0.199219 7.066406 -0.722656 7.660156 -2.464844 L 5.464844 -2.464844 C 5.222656 -1.753906 4.617188 -1.332031 3.835938 -1.332031 C 3.085938 -1.332031 2.5625 -1.769531 2.5625 -2.902344 Z M 4.585938 -6.214844 C 5.421875 -6.214844 5.847656 -5.691406 5.847656 -4.855469 C 5.847656 -4.785156 5.847656 -4.714844 5.832031 -4.601562 L 2.816406 -4.601562 C 3.128906 -5.5625 3.738281 -6.214844 4.585938 -6.214844 Z M 4.585938 -6.214844 "/></g></g></g><g fill="#ffffff" fill-opacity="1"><g transform="translate(25.19783, 18.835739)"><g><path d="M 6.171875 -7.746094 C 5.410156 -7.746094 4.730469 -7.574219 4.261719 -7.25 L 3.539062 -6.429688 L 3.738281 -7.546875 L 1.527344 -7.546875 L -0.3125 2.773438 L 1.910156 2.773438 L 2.589844 -1.0625 L 2.960938 -0.242188 C 3.285156 0.0273438 4.007812 0.199219 4.628906 0.199219 C 7.632812 0.199219 9.105469 -2.222656 9.105469 -4.742188 C 9.105469 -6.65625 8.054688 -7.746094 6.171875 -7.746094 Z M 4.488281 -1.332031 C 3.144531 -1.332031 2.847656 -2.40625 3.03125 -3.527344 L 3.085938 -3.867188 C 3.398438 -5.578125 4.304688 -6.214844 5.308594 -6.214844 C 6.203125 -6.214844 6.753906 -5.605469 6.753906 -4.417969 C 6.753906 -2.816406 5.847656 -1.332031 4.488281 -1.332031 Z M 4.488281 -1.332031 "/></g></g></g><g fill="#ffffff" fill-opacity="1"><g transform="translate(33.876593, 18.835739)"><g/></g></g><g fill="#ffffff" fill-opacity="1"><g transform="translate(35.221522, 18.835739)"><g><path d="M 8.695312 -7.546875 L 6.484375 -7.546875 L 5.875 -4.09375 C 5.535156 -2.167969 4.769531 -1.34375 3.867188 -1.34375 C 3.042969 -1.332031 2.746094 -1.796875 2.746094 -2.464844 C 2.746094 -2.734375 2.804688 -3.144531 2.886719 -3.667969 L 3.597656 -7.546875 L 1.375 -7.546875 L 0.59375 -3.226562 C 0.46875 -2.519531 0.425781 -2.136719 0.425781 -1.742188 C 0.425781 -0.609375 1.175781 0.199219 2.703125 0.199219 C 3.425781 0.199219 3.992188 0.0546875 4.558594 -0.28125 L 5.351562 -1.117188 L 5.152344 0 L 7.363281 0 Z M 8.695312 -7.546875 "/></g></g></g><g fill="#ffffff" fill-opacity="1"><g transform="translate(43.37644, 18.835739)"><g><path d="M 6.171875 -7.746094 C 5.410156 -7.746094 4.730469 -7.574219 4.261719 -7.25 L 3.539062 -6.429688 L 3.738281 -7.546875 L 1.527344 -7.546875 L -0.3125 2.773438 L 1.910156 2.773438 L 2.589844 -1.0625 L 2.960938 -0.242188 C 3.285156 0.0273438 4.007812 0.199219 4.628906 0.199219 C 7.632812 0.199219 9.105469 -2.222656 9.105469 -4.742188 C 9.105469 -6.65625 8.054688 -7.746094 6.171875 -7.746094 Z M 4.488281 -1.332031 C 3.144531 -1.332031 2.847656 -2.40625 3.03125 -3.527344 L 3.085938 -3.867188 C 3.398438 -5.578125 4.304688 -6.214844 5.308594 -6.214844 C 6.203125 -6.214844 6.753906 -5.605469 6.753906 -4.417969 C 6.753906 -2.816406 5.847656 -1.332031 4.488281 -1.332031 Z M 4.488281 -1.332031 "/></g></g></g><g fill="#ffffff" fill-opacity="1"><g transform="translate(7.696746, 23.328157)"><g><path d="M 0.984375 -1.9375 C 1.179688 -1.9375 1.328125 -1.882812 1.421875 -1.78125 C 1.515625 -1.675781 1.554688 -1.539062 1.546875 -1.375 L 1.296875 -1.375 C 1.304688 -1.488281 1.28125 -1.578125 1.21875 -1.640625 C 1.15625 -1.710938 1.0625 -1.75 0.9375 -1.75 C 0.820312 -1.75 0.726562 -1.71875 0.65625 -1.65625 C 0.582031 -1.59375 0.546875 -1.503906 0.546875 -1.390625 C 0.546875 -1.316406 0.570312 -1.253906 0.625 -1.203125 C 0.675781 -1.160156 0.765625 -1.125 0.890625 -1.09375 C 1.078125 -1.050781 1.210938 -0.988281 1.296875 -0.90625 C 1.378906 -0.820312 1.421875 -0.710938 1.421875 -0.578125 C 1.421875 -0.390625 1.347656 -0.238281 1.203125 -0.125 C 1.066406 -0.0195312 0.890625 0.03125 0.671875 0.03125 C 0.472656 0.03125 0.316406 -0.015625 0.203125 -0.109375 C 0.0859375 -0.210938 0.0351562 -0.351562 0.046875 -0.53125 L 0.296875 -0.53125 C 0.304688 -0.414062 0.34375 -0.320312 0.40625 -0.25 C 0.476562 -0.1875 0.578125 -0.15625 0.703125 -0.15625 C 0.835938 -0.15625 0.945312 -0.1875 1.03125 -0.25 C 1.113281 -0.320312 1.15625 -0.414062 1.15625 -0.53125 C 1.15625 -0.625 1.125 -0.695312 1.0625 -0.75 C 1 -0.800781 0.898438 -0.84375 0.765625 -0.875 C 0.609375 -0.914062 0.488281 -0.96875 0.40625 -1.03125 C 0.320312 -1.101562 0.28125 -1.203125 0.28125 -1.328125 C 0.28125 -1.515625 0.347656 -1.660156 0.484375 -1.765625 C 0.617188 -1.878906 0.785156 -1.9375 0.984375 -1.9375 Z M 0.984375 -1.9375 "/></g></g></g><g fill="#ffffff" fill-opacity="1"><g transform="translate(9.110174, 23.328157)"><g><path d="M 1.96875 -1.890625 L 1.625 0 L 1.265625 0 L 0.671875 -1.671875 L 0.375 0 L 0.140625 0 L 0.484375 -1.890625 L 0.84375 -1.890625 L 1.4375 -0.21875 L 1.734375 -1.890625 Z M 1.96875 -1.890625 "/></g></g></g><g fill="#ffffff" fill-opacity="1"><g transform="translate(10.940781, 23.328157)"><g><path d="M 0.6875 -1.703125 L 0.5625 -1.046875 L 1.484375 -1.046875 L 1.453125 -0.859375 L 0.53125 -0.859375 L 0.40625 -0.1875 L 1.4375 -0.1875 L 1.40625 0 L 0.140625 0 L 0.484375 -1.890625 L 1.71875 -1.890625 L 1.671875 -1.703125 Z M 0.6875 -1.703125 "/></g></g></g><g fill="#ffffff" fill-opacity="1"><g transform="translate(12.431057, 23.328157)"><g><path d="M 1.265625 -0.671875 L 0.5625 -0.671875 L 0.21875 0 L -0.046875 0 L 0.96875 -1.890625 L 1.3125 -1.890625 L 1.625 0 L 1.375 0 Z M 1.234375 -0.859375 L 1.109375 -1.703125 L 0.671875 -0.859375 Z M 1.234375 -0.859375 "/></g></g></g><g fill="#ffffff" fill-opacity="1"><g transform="translate(14.066798, 23.328157)"><g><path d="M 0.8125 -0.953125 L 1.5625 0 L 1.265625 0 L 0.640625 -0.8125 L 0.5 -0.6875 L 0.375 0 L 0.140625 0 L 0.484375 -1.890625 L 0.71875 -1.890625 L 0.546875 -0.96875 L 1.640625 -1.890625 L 1.9375 -1.890625 Z M 0.8125 -0.953125 "/></g></g></g><g fill="#ffffff" fill-opacity="1"><g transform="translate(15.65588, 23.328157)"><g><path d="M 0.6875 -1.703125 L 0.5625 -1.046875 L 1.484375 -1.046875 L 1.453125 -0.859375 L 0.53125 -0.859375 L 0.40625 -0.1875 L 1.4375 -0.1875 L 1.40625 0 L 0.140625 0 L 0.484375 -1.890625 L 1.71875 -1.890625 L 1.671875 -1.703125 Z M 0.6875 -1.703125 "/></g></g></g><g fill="#ffffff" fill-opacity="1"><g transform="translate(17.146157, 23.328157)"><g><path d="M 1.734375 -1.46875 C 1.734375 -1.3125 1.6875 -1.1875 1.59375 -1.09375 C 1.5 -1 1.382812 -0.941406 1.25 -0.921875 C 1.332031 -0.910156 1.390625 -0.863281 1.421875 -0.78125 C 1.453125 -0.707031 1.46875 -0.550781 1.46875 -0.3125 C 1.46875 -0.164062 1.484375 -0.0625 1.515625 0 L 1.265625 0 C 1.242188 -0.0703125 1.234375 -0.242188 1.234375 -0.515625 C 1.234375 -0.609375 1.21875 -0.679688 1.1875 -0.734375 C 1.15625 -0.785156 1.097656 -0.8125 1.015625 -0.8125 C 0.984375 -0.8125 0.9375 -0.8125 0.875 -0.8125 L 0.53125 -0.8125 L 0.375 0 L 0.140625 0 L 0.484375 -1.890625 L 1.09375 -1.890625 C 1.207031 -1.890625 1.289062 -1.890625 1.34375 -1.890625 C 1.46875 -1.867188 1.5625 -1.820312 1.625 -1.75 C 1.695312 -1.6875 1.734375 -1.59375 1.734375 -1.46875 Z M 1.109375 -1.015625 C 1.210938 -1.023438 1.300781 -1.066406 1.375 -1.140625 C 1.445312 -1.210938 1.484375 -1.3125 1.484375 -1.4375 C 1.484375 -1.582031 1.40625 -1.664062 1.25 -1.6875 C 1.207031 -1.695312 1.144531 -1.703125 1.0625 -1.703125 L 0.6875 -1.703125 L 0.5625 -1.015625 L 0.921875 -1.015625 C 1.003906 -1.015625 1.066406 -1.015625 1.109375 -1.015625 Z M 1.109375 -1.015625 "/></g></g></g><g fill="#ffffff" fill-opacity="1"><g transform="translate(18.70505, 23.328157)"><g><path d="M 0.984375 -1.9375 C 1.179688 -1.9375 1.328125 -1.882812 1.421875 -1.78125 C 1.515625 -1.675781 1.554688 -1.539062 1.546875 -1.375 L 1.296875 -1.375 C 1.304688 -1.488281 1.28125 -1.578125 1.21875 -1.640625 C 1.15625 -1.710938 1.0625 -1.75 0.9375 -1.75 C 0.820312 -1.75 0.726562 -1.71875 0.65625 -1.65625 C 0.582031 -1.59375 0.546875 -1.503906 0.546875 -1.390625 C 0.546875 -1.316406 0.570312 -1.253906 0.625 -1.203125 C 0.675781 -1.160156 0.765625 -1.125 0.890625 -1.09375 C 1.078125 -1.050781 1.210938 -0.988281 1.296875 -0.90625 C 1.378906 -0.820312 1.421875 -0.710938 1.421875 -0.578125 C 1.421875 -0.390625 1.347656 -0.238281 1.203125 -0.125 C 1.066406 -0.0195312 0.890625 0.03125 0.671875 0.03125 C 0.472656 0.03125 0.316406 -0.015625 0.203125 -0.109375 C 0.0859375 -0.210938 0.0351562 -0.351562 0.046875 -0.53125 L 0.296875 -0.53125 C 0.304688 -0.414062 0.34375 -0.320312 0.40625 -0.25 C 0.476562 -0.1875 0.578125 -0.15625 0.703125 -0.15625 C 0.835938 -0.15625 0.945312 -0.1875 1.03125 -0.25 C 1.113281 -0.320312 1.15625 -0.414062 1.15625 -0.53125 C 1.15625 -0.625 1.125 -0.695312 1.0625 -0.75 C 1 -0.800781 0.898438 -0.84375 0.765625 -0.875 C 0.609375 -0.914062 0.488281 -0.96875 0.40625 -1.03125 C 0.320312 -1.101562 0.28125 -1.203125 0.28125 -1.328125 C 0.28125 -1.515625 0.347656 -1.660156 0.484375 -1.765625 C 0.617188 -1.878906 0.785156 -1.9375 0.984375 -1.9375 Z M 0.984375 -1.9375 "/></g></g></g></svg>