<svg xmlns="http://www.w3.org/2000/svg" xmlns:xlink="http://www.w3.org/1999/xlink" width="500" zoomAndPan="magnify" viewBox="0 0 375 374.999991" height="500" preserveAspectRatio="xMidYMid meet" version="1.0"><defs><g/><clipPath id="869e86fa07"><path d="M 0 135.777344 L 182.25 135.777344 L 182.25 226.527344 L 0 226.527344 Z M 0 135.777344 " clip-rule="nonzero"/></clipPath></defs><g clip-path="url(#869e86fa07)"><path fill="#d2c2b0" d="M 0 90.203125 L 182.25 90.203125 L 182.25 272.453125 L 0 272.453125 Z M 0 90.203125 " fill-opacity="1" fill-rule="nonzero"/></g><g fill="#ffffff" fill-opacity="1"><g transform="translate(8.772537, 217.274229)"><g><path d="M 37.136719 -69.71875 C 22.480469 -69.71875 9.011719 -61.203125 9.011719 -46.148438 C 9.011719 -36.046875 16.539062 -31.394531 29.015625 -28.226562 C 36.839844 -26.144531 40.007812 -22.976562 40.007812 -19.113281 C 40.007812 -13.566406 34.859375 -10.101562 28.523438 -10.101562 C 22.28125 -10.101562 17.332031 -13.46875 17.230469 -20.5 L 1.585938 -20.5 C 0.199219 -5.742188 10.792969 1.386719 26.738281 1.386719 C 42.585938 1.386719 56.746094 -6.832031 56.746094 -22.085938 C 56.746094 -31.195312 51.101562 -37.433594 38.625 -40.503906 C 29.117188 -42.78125 25.75 -45.457031 25.75 -49.617188 C 25.75 -55.261719 29.910156 -58.230469 35.453125 -58.230469 C 41.992188 -58.230469 44.960938 -54.171875 44.566406 -47.832031 L 60.210938 -47.832031 C 60.90625 -60.210938 54.171875 -69.71875 37.136719 -69.71875 Z M 37.136719 -69.71875 "/></g></g></g><g fill="#ffffff" fill-opacity="1"><g transform="translate(64.426222, 217.274229)"><g><path d="M 26.640625 -42.484375 L 37.433594 -42.484375 L 39.21875 -52.390625 L 28.324219 -52.390625 L 30.699219 -65.660156 L 15.152344 -65.660156 L 12.773438 -52.390625 L 5.148438 -52.390625 L 3.367188 -42.484375 L 10.992188 -42.484375 L 6.734375 -18.222656 C 5.941406 -13.371094 5.644531 -10.496094 5.644531 -8.320312 C 5.644531 -1.882812 9.410156 1.289062 19.015625 1.289062 C 22.875 1.289062 26.34375 0.890625 29.910156 0.0976562 L 31.691406 -9.902344 C 24.957031 -9.011719 21.984375 -10.003906 21.984375 -14.359375 C 21.984375 -16.042969 22.085938 -17.429688 22.679688 -20.300781 Z M 26.640625 -42.484375 "/></g></g></g><g fill="#ffffff" fill-opacity="1"><g transform="translate(96.312963, 217.274229)"><g><path d="M 17.925781 -22.382812 L 54.863281 -22.382812 C 55.953125 -25.648438 56.648438 -29.609375 56.648438 -32.878906 C 56.648438 -44.566406 49.21875 -54.171875 33.574219 -54.171875 C 14.65625 -54.171875 2.179688 -39.515625 2.179688 -20.300781 C 2.179688 -4.953125 12.675781 1.386719 25.648438 1.386719 C 39.117188 1.386719 49.417969 -5.050781 53.578125 -17.230469 L 38.226562 -17.230469 C 36.542969 -12.28125 32.285156 -9.308594 26.839844 -9.308594 C 21.589844 -9.308594 17.925781 -12.378906 17.925781 -20.300781 Z M 32.085938 -43.476562 C 37.929688 -43.476562 40.902344 -39.8125 40.902344 -33.96875 C 40.902344 -33.472656 40.902344 -32.976562 40.800781 -32.1875 L 19.707031 -32.1875 C 21.886719 -38.921875 26.144531 -43.476562 32.085938 -43.476562 Z M 32.085938 -43.476562 "/></g></g></g><g fill="#ffffff" fill-opacity="1"><g transform="translate(150.184133, 217.274229)"><g><path d="M 43.179688 -54.171875 C 37.832031 -54.171875 33.078125 -52.984375 29.808594 -50.707031 L 24.757812 -44.960938 L 26.144531 -52.785156 L 10.695312 -52.785156 L -2.179688 19.410156 L 13.371094 19.410156 L 18.125 -7.425781 L 20.699219 -1.683594 C 22.976562 0.199219 28.027344 1.386719 32.382812 1.386719 C 53.378906 1.386719 63.679688 -15.546875 63.679688 -33.175781 C 63.679688 -46.546875 56.351562 -54.171875 43.179688 -54.171875 Z M 31.394531 -9.308594 C 21.984375 -9.308594 19.90625 -16.835938 21.191406 -24.660156 L 21.589844 -27.035156 C 23.769531 -39.019531 30.105469 -43.476562 37.136719 -43.476562 C 43.375 -43.476562 47.238281 -39.21875 47.238281 -30.898438 C 47.238281 -19.707031 40.902344 -9.308594 31.394531 -9.308594 Z M 31.394531 -9.308594 "/></g></g></g><g fill="#ffffff" fill-opacity="1"><g transform="translate(210.888291, 217.274229)"><g/></g></g><g fill="#ffffff" fill-opacity="1"><g transform="translate(220.295478, 217.274229)"><g><path d="M 60.808594 -52.785156 L 45.359375 -52.785156 L 41.097656 -28.621094 C 38.722656 -15.152344 33.375 -9.410156 27.035156 -9.410156 C 21.292969 -9.308594 19.210938 -12.578125 19.210938 -17.230469 C 19.210938 -19.113281 19.609375 -21.984375 20.203125 -25.648438 L 25.15625 -52.785156 L 9.605469 -52.785156 L 4.160156 -22.578125 C 3.269531 -17.628906 2.972656 -14.953125 2.972656 -12.179688 C 2.972656 -4.257812 8.21875 1.386719 18.914062 1.386719 C 23.964844 1.386719 27.925781 0.394531 31.890625 -1.980469 L 37.433594 -7.824219 L 36.046875 0 L 51.496094 0 Z M 60.808594 -52.785156 "/></g></g></g><g fill="#ffffff" fill-opacity="1"><g transform="translate(277.335568, 217.274229)"><g><path d="M 43.179688 -54.171875 C 37.832031 -54.171875 33.078125 -52.984375 29.808594 -50.707031 L 24.757812 -44.960938 L 26.144531 -52.785156 L 10.695312 -52.785156 L -2.179688 19.410156 L 13.371094 19.410156 L 18.125 -7.425781 L 20.699219 -1.683594 C 22.976562 0.199219 28.027344 1.386719 32.382812 1.386719 C 53.378906 1.386719 63.679688 -15.546875 63.679688 -33.175781 C 63.679688 -46.546875 56.351562 -54.171875 43.179688 -54.171875 Z M 31.394531 -9.308594 C 21.984375 -9.308594 19.90625 -16.835938 21.191406 -24.660156 L 21.589844 -27.035156 C 23.769531 -39.019531 30.105469 -43.476562 37.136719 -43.476562 C 43.375 -43.476562 47.238281 -39.21875 47.238281 -30.898438 C 47.238281 -19.707031 40.902344 -9.308594 31.394531 -9.308594 Z M 31.394531 -9.308594 "/></g></g></g><g fill="#ffffff" fill-opacity="1"><g transform="translate(27.771701, 248.696735)"><g><path d="M 6.90625 -13.515625 C 8.238281 -13.515625 9.238281 -13.148438 9.90625 -12.421875 C 10.582031 -11.703125 10.890625 -10.753906 10.828125 -9.578125 L 9.0625 -9.578125 C 9.125 -10.410156 8.929688 -11.054688 8.484375 -11.515625 C 8.035156 -11.984375 7.390625 -12.21875 6.546875 -12.21875 C 5.742188 -12.21875 5.082031 -11.992188 4.5625 -11.546875 C 4.039062 -11.109375 3.78125 -10.507812 3.78125 -9.75 C 3.78125 -9.195312 3.972656 -8.757812 4.359375 -8.4375 C 4.742188 -8.125 5.367188 -7.863281 6.234375 -7.65625 C 7.503906 -7.351562 8.441406 -6.910156 9.046875 -6.328125 C 9.660156 -5.753906 9.96875 -4.984375 9.96875 -4.015625 C 9.96875 -2.722656 9.46875 -1.6875 8.46875 -0.90625 C 7.46875 -0.125 6.203125 0.265625 4.671875 0.265625 C 3.285156 0.265625 2.195312 -0.0859375 1.40625 -0.796875 C 0.613281 -1.515625 0.253906 -2.503906 0.328125 -3.765625 L 2.09375 -3.765625 C 2.132812 -2.890625 2.398438 -2.210938 2.890625 -1.734375 C 3.378906 -1.265625 4.0625 -1.03125 4.9375 -1.03125 C 5.851562 -1.03125 6.613281 -1.269531 7.21875 -1.75 C 7.820312 -2.238281 8.125 -2.894531 8.125 -3.71875 C 8.125 -4.351562 7.90625 -4.851562 7.46875 -5.21875 C 7.03125 -5.582031 6.320312 -5.882812 5.34375 -6.125 C 4.25 -6.394531 3.40625 -6.769531 2.8125 -7.25 C 2.226562 -7.738281 1.9375 -8.40625 1.9375 -9.25 C 1.9375 -10.550781 2.410156 -11.585938 3.359375 -12.359375 C 4.316406 -13.128906 5.5 -13.515625 6.90625 -13.515625 Z M 6.90625 -13.515625 "/></g></g></g><g fill="#ffffff" fill-opacity="1"><g transform="translate(37.65801, 248.696735)"><g><path d="M 13.71875 -13.25 L 11.375 0 L 8.828125 0 L 4.671875 -11.671875 L 2.65625 0 L 1 0 L 3.34375 -13.25 L 5.875 -13.25 L 10 -1.578125 L 12.0625 -13.25 Z M 13.71875 -13.25 "/></g></g></g><g fill="#ffffff" fill-opacity="1"><g transform="translate(50.462304, 248.696735)"><g><path d="M 4.765625 -11.90625 L 3.9375 -7.296875 L 10.328125 -7.296875 L 10.09375 -5.953125 L 3.703125 -5.953125 L 2.875 -1.34375 L 10.0625 -1.34375 L 9.8125 0 L 1 0 L 3.34375 -13.25 L 11.96875 -13.25 L 11.71875 -11.90625 Z M 4.765625 -11.90625 "/></g></g></g><g fill="#ffffff" fill-opacity="1"><g transform="translate(60.886136, 248.696735)"><g><path d="M 8.828125 -4.6875 L 3.96875 -4.6875 L 1.5625 0 L -0.328125 0 L 6.78125 -13.25 L 9.125 -13.25 L 11.34375 0 L 9.5625 0 Z M 8.625 -6.03125 L 7.71875 -11.9375 L 4.671875 -6.03125 Z M 8.625 -6.03125 "/></g></g></g><g fill="#ffffff" fill-opacity="1"><g transform="translate(72.327431, 248.696735)"><g><path d="M 5.71875 -6.625 L 10.875 0 L 8.859375 0 L 4.515625 -5.71875 L 3.515625 -4.84375 L 2.65625 0 L 1 0 L 3.34375 -13.25 L 5 -13.25 L 3.84375 -6.734375 L 11.46875 -13.25 L 13.484375 -13.25 Z M 5.71875 -6.625 "/></g></g></g><g fill="#ffffff" fill-opacity="1"><g transform="translate(83.442364, 248.696735)"><g><path d="M 4.765625 -11.90625 L 3.9375 -7.296875 L 10.328125 -7.296875 L 10.09375 -5.953125 L 3.703125 -5.953125 L 2.875 -1.34375 L 10.0625 -1.34375 L 9.8125 0 L 1 0 L 3.34375 -13.25 L 11.96875 -13.25 L 11.71875 -11.90625 Z M 4.765625 -11.90625 "/></g></g></g><g fill="#ffffff" fill-opacity="1"><g transform="translate(93.866199, 248.696735)"><g><path d="M 12.15625 -10.296875 C 12.15625 -9.179688 11.816406 -8.296875 11.140625 -7.640625 C 10.460938 -6.984375 9.65625 -6.570312 8.71875 -6.40625 C 9.320312 -6.34375 9.726562 -6.03125 9.9375 -5.46875 C 10.144531 -4.914062 10.25 -3.800781 10.25 -2.125 C 10.25 -1.113281 10.363281 -0.40625 10.59375 0 L 8.8125 0 C 8.695312 -0.5 8.628906 -1.707031 8.609375 -3.625 C 8.585938 -4.269531 8.460938 -4.765625 8.234375 -5.109375 C 8.015625 -5.453125 7.640625 -5.644531 7.109375 -5.6875 C 6.898438 -5.695312 6.585938 -5.703125 6.171875 -5.703125 L 3.671875 -5.703125 L 2.65625 0 L 1 0 L 3.34375 -13.25 L 7.6875 -13.25 C 8.4375 -13.25 9.007812 -13.222656 9.40625 -13.171875 C 10.269531 -13.054688 10.941406 -12.757812 11.421875 -12.28125 C 11.910156 -11.8125 12.15625 -11.148438 12.15625 -10.296875 Z M 7.734375 -7.09375 C 8.492188 -7.164062 9.117188 -7.453125 9.609375 -7.953125 C 10.097656 -8.453125 10.34375 -9.132812 10.34375 -10 C 10.34375 -11.050781 9.8125 -11.660156 8.75 -11.828125 C 8.4375 -11.878906 8.003906 -11.90625 7.453125 -11.90625 L 4.765625 -11.90625 L 3.890625 -7.046875 L 6.4375 -7.046875 C 7.050781 -7.046875 7.484375 -7.0625 7.734375 -7.09375 Z M 7.734375 -7.09375 "/></g></g></g><g fill="#ffffff" fill-opacity="1"><g transform="translate(104.769974, 248.696735)"><g><path d="M 6.90625 -13.515625 C 8.238281 -13.515625 9.238281 -13.148438 9.90625 -12.421875 C 10.582031 -11.703125 10.890625 -10.753906 10.828125 -9.578125 L 9.0625 -9.578125 C 9.125 -10.410156 8.929688 -11.054688 8.484375 -11.515625 C 8.035156 -11.984375 7.390625 -12.21875 6.546875 -12.21875 C 5.742188 -12.21875 5.082031 -11.992188 4.5625 -11.546875 C 4.039062 -11.109375 3.78125 -10.507812 3.78125 -9.75 C 3.78125 -9.195312 3.972656 -8.757812 4.359375 -8.4375 C 4.742188 -8.125 5.367188 -7.863281 6.234375 -7.65625 C 7.503906 -7.351562 8.441406 -6.910156 9.046875 -6.328125 C 9.660156 -5.753906 9.96875 -4.984375 9.96875 -4.015625 C 9.96875 -2.722656 9.46875 -1.6875 8.46875 -0.90625 C 7.46875 -0.125 6.203125 0.265625 4.671875 0.265625 C 3.285156 0.265625 2.195312 -0.0859375 1.40625 -0.796875 C 0.613281 -1.515625 0.253906 -2.503906 0.328125 -3.765625 L 2.09375 -3.765625 C 2.132812 -2.890625 2.398438 -2.210938 2.890625 -1.734375 C 3.378906 -1.265625 4.0625 -1.03125 4.9375 -1.03125 C 5.851562 -1.03125 6.613281 -1.269531 7.21875 -1.75 C 7.820312 -2.238281 8.125 -2.894531 8.125 -3.71875 C 8.125 -4.351562 7.90625 -4.851562 7.46875 -5.21875 C 7.03125 -5.582031 6.320312 -5.882812 5.34375 -6.125 C 4.25 -6.394531 3.40625 -6.769531 2.8125 -7.25 C 2.226562 -7.738281 1.9375 -8.40625 1.9375 -9.25 C 1.9375 -10.550781 2.410156 -11.585938 3.359375 -12.359375 C 4.316406 -13.128906 5.5 -13.515625 6.90625 -13.515625 Z M 6.90625 -13.515625 "/></g></g></g></svg>