<svg xmlns="http://www.w3.org/2000/svg" xmlns:xlink="http://www.w3.org/1999/xlink" width="500" zoomAndPan="magnify" viewBox="0 0 375 187.499995" height="250" preserveAspectRatio="xMidYMid meet" version="1.0"><defs><g/><clipPath id="d69f91c25e"><path d="M 41.28125 46.589844 L 184.152344 46.589844 L 184.152344 118.398438 L 41.28125 118.398438 Z M 41.28125 46.589844 " clip-rule="nonzero"/></clipPath></defs><g clip-path="url(#d69f91c25e)"><path fill="#d2c2b0" d="M 41.28125 10.78125 L 184.152344 10.78125 L 184.152344 153.652344 L 41.28125 153.652344 Z M 41.28125 10.78125 " fill-opacity="1" fill-rule="nonzero"/></g><g fill="#1f1f24" fill-opacity="1"><g transform="translate(48.175421, 108.016398)"><g><path d="M 29.171875 -54.769531 C 17.660156 -54.769531 7.078125 -48.078125 7.078125 -36.253906 C 7.078125 -28.316406 12.992188 -24.660156 22.792969 -22.171875 C 28.941406 -20.539062 31.429688 -18.046875 31.429688 -15.015625 C 31.429688 -10.65625 27.382812 -7.933594 22.40625 -7.933594 C 17.503906 -7.933594 13.613281 -10.582031 13.535156 -16.105469 L 1.246094 -16.105469 C 0.15625 -4.511719 8.480469 1.089844 21.003906 1.089844 C 33.453125 1.089844 44.578125 -5.367188 44.578125 -17.347656 C 44.578125 -24.503906 40.140625 -29.40625 30.339844 -31.816406 C 22.871094 -33.609375 20.226562 -35.707031 20.226562 -38.976562 C 20.226562 -43.410156 23.496094 -45.742188 27.851562 -45.742188 C 32.984375 -45.742188 35.320312 -42.554688 35.007812 -37.574219 L 47.300781 -37.574219 C 47.84375 -47.300781 42.554688 -54.769531 29.171875 -54.769531 Z M 29.171875 -54.769531 "/></g></g></g><g fill="#1f1f24" fill-opacity="1"><g transform="translate(91.861973, 108.016398)"><g><path d="M 20.925781 -33.375 L 29.40625 -33.375 L 30.808594 -41.152344 L 22.25 -41.152344 L 24.117188 -51.578125 L 11.902344 -51.578125 L 10.035156 -41.152344 L 4.046875 -41.152344 L 2.644531 -33.375 L 8.636719 -33.375 L 5.289062 -14.3125 C 4.667969 -10.503906 4.433594 -8.246094 4.433594 -6.535156 C 4.433594 -1.476562 7.390625 1.011719 14.9375 1.011719 C 17.972656 1.011719 20.695312 0.699219 23.496094 0.078125 L 24.894531 -7.78125 C 19.605469 -7.078125 17.269531 -7.855469 17.269531 -11.28125 C 17.269531 -12.601562 17.347656 -13.691406 17.816406 -15.949219 Z M 20.925781 -33.375 "/></g></g></g><g fill="#1f1f24" fill-opacity="1"><g transform="translate(116.890768, 108.016398)"><g><path d="M 14.082031 -17.582031 L 43.097656 -17.582031 C 43.953125 -20.148438 44.5 -23.261719 44.5 -25.828125 C 44.5 -35.007812 38.664062 -42.554688 26.371094 -42.554688 C 11.515625 -42.554688 1.710938 -31.039062 1.710938 -15.949219 C 1.710938 -3.890625 9.957031 1.089844 20.148438 1.089844 C 30.730469 1.089844 38.820312 -3.96875 42.085938 -13.535156 L 30.027344 -13.535156 C 28.707031 -9.648438 25.359375 -7.3125 21.082031 -7.3125 C 16.960938 -7.3125 14.082031 -9.722656 14.082031 -15.949219 Z M 25.207031 -34.152344 C 29.796875 -34.152344 32.128906 -31.273438 32.128906 -26.683594 C 32.128906 -26.292969 32.128906 -25.90625 32.050781 -25.285156 L 15.480469 -25.285156 C 17.191406 -30.574219 20.539062 -34.152344 25.207031 -34.152344 Z M 25.207031 -34.152344 "/></g></g></g><g fill="#1f1f24" fill-opacity="1"><g transform="translate(159.178027, 108.016398)"><g><path d="M 33.917969 -42.554688 C 29.71875 -42.554688 25.984375 -41.621094 23.417969 -39.832031 L 19.449219 -35.320312 L 20.539062 -41.464844 L 8.402344 -41.464844 L -1.710938 15.246094 L 10.503906 15.246094 L 14.238281 -5.835938 L 16.257812 -1.324219 C 18.046875 0.15625 22.015625 1.089844 25.4375 1.089844 C 41.933594 1.089844 50.023438 -12.214844 50.023438 -26.0625 C 50.023438 -36.5625 44.265625 -42.554688 33.917969 -42.554688 Z M 24.660156 -7.3125 C 17.269531 -7.3125 15.636719 -13.226562 16.648438 -19.371094 L 16.960938 -21.238281 C 18.671875 -30.652344 23.648438 -34.152344 29.171875 -34.152344 C 34.074219 -34.152344 37.109375 -30.808594 37.109375 -24.273438 C 37.109375 -15.480469 32.128906 -7.3125 24.660156 -7.3125 Z M 24.660156 -7.3125 "/></g></g></g><g fill="#1f1f24" fill-opacity="1"><g transform="translate(206.829388, 108.016398)"><g/></g></g><g fill="#1f1f24" fill-opacity="1"><g transform="translate(214.211087, 108.016398)"><g><path d="M 47.765625 -41.464844 L 35.628906 -41.464844 L 32.285156 -22.484375 C 30.417969 -11.902344 26.21875 -7.390625 21.238281 -7.390625 C 16.726562 -7.3125 15.09375 -9.878906 15.09375 -13.535156 C 15.09375 -15.015625 15.402344 -17.269531 15.871094 -20.148438 L 19.761719 -41.464844 L 7.546875 -41.464844 L 3.265625 -17.738281 C 2.566406 -13.847656 2.332031 -11.746094 2.332031 -9.570312 C 2.332031 -3.34375 6.457031 1.089844 14.859375 1.089844 C 18.828125 1.089844 21.9375 0.3125 25.050781 -1.554688 L 29.40625 -6.144531 L 28.316406 0 L 40.453125 0 Z M 47.765625 -41.464844 "/></g></g></g><g fill="#1f1f24" fill-opacity="1"><g transform="translate(258.986055, 108.016398)"><g><path d="M 33.917969 -42.554688 C 29.71875 -42.554688 25.984375 -41.621094 23.417969 -39.832031 L 19.449219 -35.320312 L 20.539062 -41.464844 L 8.402344 -41.464844 L -1.710938 15.246094 L 10.503906 15.246094 L 14.238281 -5.835938 L 16.257812 -1.324219 C 18.046875 0.15625 22.015625 1.089844 25.4375 1.089844 C 41.933594 1.089844 50.023438 -12.214844 50.023438 -26.0625 C 50.023438 -36.5625 44.265625 -42.554688 33.917969 -42.554688 Z M 24.660156 -7.3125 C 17.269531 -7.3125 15.636719 -13.226562 16.648438 -19.371094 L 16.960938 -21.238281 C 18.671875 -30.652344 23.648438 -34.152344 29.171875 -34.152344 C 34.074219 -34.152344 37.109375 -30.808594 37.109375 -24.273438 C 37.109375 -15.480469 32.128906 -7.3125 24.660156 -7.3125 Z M 24.660156 -7.3125 "/></g></g></g><g fill="#1f1f24" fill-opacity="1"><g transform="translate(41.282984, 146.555782)"><g><path d="M 7.578125 -14.382812 C 4.597656 -14.382812 1.921875 -12.644531 1.921875 -9.601562 C 1.921875 -7.578125 3.453125 -6.617188 5.902344 -6.007812 C 7.640625 -5.554688 8.355469 -4.902344 8.355469 -3.941406 C 8.355469 -2.613281 7.191406 -1.816406 5.71875 -1.816406 C 4.269531 -1.816406 3.226562 -2.613281 3.1875 -4.167969 L 0.328125 -4.167969 C 0.0820312 -1.207031 2.1875 0.285156 5.371094 0.285156 C 8.621094 0.285156 11.417969 -1.429688 11.417969 -4.472656 C 11.417969 -6.414062 10.195312 -7.660156 7.597656 -8.292969 C 5.699219 -8.765625 4.964844 -9.316406 4.964844 -10.277344 C 4.964844 -11.5625 5.925781 -12.277344 7.210938 -12.277344 C 8.683594 -12.277344 9.398438 -11.378906 9.316406 -9.949219 L 12.175781 -9.949219 C 12.316406 -12.460938 10.929688 -14.382812 7.578125 -14.382812 Z M 7.578125 -14.382812 "/></g></g></g><g fill="#1f1f24" fill-opacity="1"><g transform="translate(52.498263, 146.555782)"><g><path d="M 15.585938 -14.09375 L 12.769531 -14.09375 L 10.867188 -3.125 L 6.945312 -14.09375 L 3.207031 -14.09375 L 0.714844 0 L 3.535156 0 L 5.394531 -10.703125 L 9.234375 0 L 13.09375 0 Z M 15.585938 -14.09375 "/></g></g></g><g fill="#1f1f24" fill-opacity="1"><g transform="translate(66.900388, 146.555782)"><g><path d="M 5.636719 -11.890625 L 12.769531 -11.890625 L 13.15625 -14.09375 L 3.207031 -14.09375 L 0.714844 0 L 10.867188 0 L 11.277344 -2.226562 L 3.921875 -2.226562 L 4.574219 -5.945312 L 11.234375 -5.945312 L 11.625 -8.171875 L 4.984375 -8.171875 Z M 5.636719 -11.890625 "/></g></g></g><g fill="#1f1f24" fill-opacity="1"><g transform="translate(78.381245, 146.555782)"><g><path d="M 9.335938 -4.25 L 9.96875 0 L 13.011719 0 L 10.582031 -14.09375 L 6.84375 -14.09375 L -0.632812 0 L 2.410156 0 L 4.535156 -4.25 Z M 9.007812 -6.476562 L 5.660156 -6.476562 L 8.234375 -11.601562 Z M 9.007812 -6.476562 "/></g></g></g><g fill="#1f1f24" fill-opacity="1"><g transform="translate(91.25125, 146.555782)"><g><path d="M 7.640625 -7.191406 L 15.445312 -14.09375 L 12.074219 -14.09375 L 4.863281 -7.558594 L 6.027344 -14.09375 L 3.207031 -14.09375 L 0.714844 0 L 3.535156 0 L 4.371094 -4.71875 L 5.496094 -5.761719 L 9.253906 0 L 12.726562 0 Z M 7.640625 -7.191406 "/></g></g></g><g fill="#1f1f24" fill-opacity="1"><g transform="translate(104.039537, 146.555782)"><g><path d="M 5.636719 -11.890625 L 12.769531 -11.890625 L 13.15625 -14.09375 L 3.207031 -14.09375 L 0.714844 0 L 10.867188 0 L 11.277344 -2.226562 L 3.921875 -2.226562 L 4.574219 -5.945312 L 11.234375 -5.945312 L 11.625 -8.171875 L 4.984375 -8.171875 Z M 5.636719 -11.890625 "/></g></g></g><g fill="#1f1f24" fill-opacity="1"><g transform="translate(115.520397, 146.555782)"><g><path d="M 13.503906 -10.929688 C 13.503906 -12.871094 12.15625 -13.789062 10.398438 -13.992188 C 9.703125 -14.074219 9.171875 -14.09375 8.355469 -14.09375 L 3.207031 -14.09375 L 0.714844 0 L 3.535156 0 L 4.535156 -5.679688 L 6.191406 -5.679688 C 6.558594 -5.679688 6.90625 -5.679688 7.273438 -5.660156 C 8.292969 -5.578125 8.703125 -4.761719 8.703125 -3.453125 C 8.722656 -1.410156 8.765625 -0.675781 8.886719 0 L 11.929688 0 C 11.644531 -0.59375 11.523438 -1.429688 11.523438 -2.511719 C 11.523438 -5.230469 11.132812 -6.351562 9.929688 -6.761719 C 12.054688 -7.292969 13.503906 -8.660156 13.503906 -10.929688 Z M 8.027344 -7.804688 C 7.679688 -7.785156 7.355469 -7.785156 6.863281 -7.785156 L 4.902344 -7.785156 L 5.636719 -11.890625 L 7.703125 -11.890625 C 8.191406 -11.890625 8.539062 -11.867188 8.867188 -11.828125 C 9.785156 -11.726562 10.417969 -11.296875 10.417969 -10.253906 C 10.417969 -8.621094 9.296875 -7.925781 8.027344 -7.804688 Z M 8.027344 -7.804688 "/></g></g></g><g fill="#1f1f24" fill-opacity="1"><g transform="translate(127.675388, 146.555782)"><g><path d="M 7.578125 -14.382812 C 4.597656 -14.382812 1.921875 -12.644531 1.921875 -9.601562 C 1.921875 -7.578125 3.453125 -6.617188 5.902344 -6.007812 C 7.640625 -5.554688 8.355469 -4.902344 8.355469 -3.941406 C 8.355469 -2.613281 7.191406 -1.816406 5.71875 -1.816406 C 4.269531 -1.816406 3.226562 -2.613281 3.1875 -4.167969 L 0.328125 -4.167969 C 0.0820312 -1.207031 2.1875 0.285156 5.371094 0.285156 C 8.621094 0.285156 11.417969 -1.429688 11.417969 -4.472656 C 11.417969 -6.414062 10.195312 -7.660156 7.597656 -8.292969 C 5.699219 -8.765625 4.964844 -9.316406 4.964844 -10.277344 C 4.964844 -11.5625 5.925781 -12.277344 7.210938 -12.277344 C 8.683594 -12.277344 9.398438 -11.378906 9.316406 -9.949219 L 12.175781 -9.949219 C 12.316406 -12.460938 10.929688 -14.382812 7.578125 -14.382812 Z M 7.578125 -14.382812 "/></g></g></g></svg>